# xmcd CD database file
#
# Track frame offsets:
#	150
#	36067
#	57760
#	84157
#	114742
#	138887
#	172697
#	195585
#	223417
#	250085
#
# Disc length: 3595 seconds
#
# Revision: 3
# Processed by: cddbd v1.5.2PL0 Copyright (c) Steve Scherf et al.
# Submitted via: CDex 1.51
#
DISCID=7f0e090a
DTITLE=Junior Wells - Better Off With The Blues
DYEAR=1993
DGENRE=Blues
TTITLE0=Cry For Me Baby
TTITLE1=Do A Little Something For Yourself
TTITLE2=Oh, Pretty Woman
TTITLE3=Goin' Home
TTITLE4=Waitin' On Ice
TTITLE5=Better Off With The Blues
TTITLE6=The Train
TTITLE7=Today I Started Loving You Again
TTITLE8=Honest I Do
TTITLE9=Messin' With The Kid
EXTD=YEAR: 1993
EXTT0=
EXTT1=
EXTT2=
EXTT3=
EXTT4=
EXTT5=
EXTT6=
EXTT7=
EXTT8=
EXTT9=
PLAYORDER=
